<svg width="30" height="31" viewBox="0 0 30 31" fill="none" xmlns="http://www.w3.org/2000/svg">
<path d="M14.7382 3.1915C7.99865 3.1915 2.55096 8.67575 2.55096 15.3787C2.55096 18.611 3.83497 21.7109 6.12052 23.9964C7.2522 25.1281 8.59572 26.0258 10.0743 26.6383C11.553 27.2507 13.1377 27.566 14.7382 27.566C17.9704 27.566 21.0703 26.282 23.3559 23.9964C25.6414 21.7109 26.9254 18.611 26.9254 15.3787C26.9254 13.7783 26.6102 12.1935 25.9977 10.7149C25.3853 9.23626 24.4876 7.89275 23.3559 6.76106C22.2242 5.62937 20.8807 4.73166 19.402 4.1192C17.9234 3.50673 16.3386 3.1915 14.7382 3.1915ZM19.0037 10.5038C19.4886 10.5038 19.9535 10.6964 20.2964 11.0393C20.6392 11.3821 20.8318 11.8471 20.8318 12.3319C20.8318 12.8168 20.6392 13.2817 20.2964 13.6246C19.9535 13.9674 19.4886 14.16 19.0037 14.16C18.5189 14.16 18.0539 13.9674 17.7111 13.6246C17.3682 13.2817 17.1756 12.8168 17.1756 12.3319C17.1756 11.8471 17.3682 11.3821 17.7111 11.0393C18.0539 10.6964 18.5189 10.5038 19.0037 10.5038ZM10.4727 10.5038C10.9575 10.5038 11.4225 10.6964 11.7653 11.0393C12.1081 11.3821 12.3007 11.8471 12.3007 12.3319C12.3007 12.8168 12.1081 13.2817 11.7653 13.6246C11.4225 13.9674 10.9575 14.16 10.4727 14.16C9.98782 14.16 9.52284 13.9674 9.18001 13.6246C8.83718 13.2817 8.64457 12.8168 8.64457 12.3319C8.64457 11.8471 8.83718 11.3821 9.18001 11.0393C9.52284 10.6964 9.98782 10.5038 10.4727 10.5038ZM14.7382 22.0817C11.8986 22.0817 9.48549 20.3024 8.51051 17.8162H20.9659C19.9787 20.3024 17.5778 22.0817 14.7382 22.0817Z" fill="#FCA311"/>
</svg>
