<svg width="103" height="42" viewBox="0 0 103 42" fill="none" xmlns="http://www.w3.org/2000/svg">
<path d="M35.8605 22.5592V19.4408H31.0739C30.7933 17.2268 29.9201 15.122 28.5481 13.3601L31.9626 9.97678L29.7331 7.74719L26.3497 11.1617C24.5878 9.78968 22.483 8.91655 20.269 8.63591V3.8493H17.1507V8.63591C14.9367 8.91655 12.8318 9.78968 11.07 11.1617L7.68662 7.74719L5.45703 9.97678L8.87157 13.3601C7.49952 15.122 6.62639 17.2268 6.34575 19.4408H1.55914V22.5592H6.34575C6.62639 24.7731 7.49952 26.878 8.87157 28.6398L5.45703 32.0232L7.68662 34.2528L11.07 30.8383C12.8318 32.2103 14.9367 33.0834 17.1507 33.3641V38.1507H20.269V33.3641C22.483 33.0834 24.5878 32.2103 26.3497 30.8383L29.7331 34.2528L31.9626 32.0232L28.5481 28.6398C29.9201 26.878 30.7933 24.7731 31.0739 22.5592H35.8605ZM18.7098 14.7634C17.0558 14.7634 15.4695 15.4205 14.2999 16.59C13.1303 17.7596 12.4732 19.3459 12.4732 21H9.35491C9.35491 18.5189 10.3405 16.1395 12.0949 14.3851C13.8493 12.6307 16.2288 11.6451 18.7098 11.6451V14.7634Z" fill="white"/>
<path d="M47.8832 10.0561C47.8832 9.08232 48.0938 8.2162 48.5152 7.45776C48.9366 6.68996 49.5218 6.09538 50.2708 5.67403C51.0293 5.24331 51.886 5.02795 52.8411 5.02795C54.0115 5.02795 55.0134 5.33695 55.8468 5.95493C56.6801 6.57292 57.2372 7.41563 57.5181 8.48306H54.8776C54.681 8.07107 54.4001 7.75739 54.0349 7.54203C53.6791 7.32667 53.2718 7.21899 52.813 7.21899C52.0733 7.21899 51.474 7.47649 51.0152 7.99148C50.5564 8.50647 50.327 9.19468 50.327 10.0561C50.327 10.9175 50.5564 11.6058 51.0152 12.1207C51.474 12.6357 52.0733 12.8932 52.813 12.8932C53.2718 12.8932 53.6791 12.7856 54.0349 12.5702C54.4001 12.3548 54.681 12.0412 54.8776 11.6292H57.5181C57.2372 12.6966 56.6801 13.5393 55.8468 14.1573C55.0134 14.7659 54.0115 15.0702 52.8411 15.0702C51.886 15.0702 51.0293 14.8595 50.2708 14.4382C49.5218 14.0075 48.9366 13.4129 48.5152 12.6545C48.0938 11.896 47.8832 11.0299 47.8832 10.0561ZM58.5114 11.0674C58.5114 10.2621 58.6612 9.55517 58.9608 8.94655C59.2698 8.33792 59.6865 7.86975 60.2108 7.54203C60.7352 7.21431 61.3204 7.05045 61.9665 7.05045C62.5189 7.05045 63.0011 7.16281 63.4131 7.38754C63.8345 7.61226 64.1575 7.90721 64.3823 8.27238V7.16281H66.784V15H64.3823V13.8904C64.1482 14.2556 63.8204 14.5506 63.3991 14.7753C62.9871 15 62.5049 15.1124 61.9524 15.1124C61.3157 15.1124 60.7352 14.9485 60.2108 14.6208C59.6865 14.2837 59.2698 13.8108 58.9608 13.2022C58.6612 12.5842 58.5114 11.8726 58.5114 11.0674ZM64.3823 11.0814C64.3823 10.4821 64.2137 10.0093 63.8766 9.66285C63.5489 9.3164 63.1463 9.14318 62.6687 9.14318C62.1912 9.14318 61.7839 9.3164 61.4468 9.66285C61.1191 9.99993 60.9552 10.4681 60.9552 11.0674C60.9552 11.6666 61.1191 12.1442 61.4468 12.5C61.7839 12.8464 62.1912 13.0196 62.6687 13.0196C63.1463 13.0196 63.5489 12.8464 63.8766 12.5C64.2137 12.1535 64.3823 11.6807 64.3823 11.0814ZM78.5216 7.07854C79.4954 7.07854 80.2679 7.37349 80.8391 7.96339C81.4196 8.55328 81.7099 9.37258 81.7099 10.4213V15H79.3222V10.7443C79.3222 10.2387 79.1864 9.85012 78.9149 9.57858C78.6527 9.29767 78.2876 9.15722 77.8194 9.15722C77.3512 9.15722 76.9814 9.29767 76.7098 9.57858C76.4476 9.85012 76.3166 10.2387 76.3166 10.7443V15H73.9289V10.7443C73.9289 10.2387 73.7931 9.85012 73.5216 9.57858C73.2594 9.29767 72.8942 9.15722 72.4261 9.15722C71.9579 9.15722 71.588 9.29767 71.3165 9.57858C71.0543 9.85012 70.9232 10.2387 70.9232 10.7443V15H68.5215V7.16281H70.9232V8.14597C71.1667 7.81825 71.485 7.56076 71.8783 7.37349C72.2716 7.17686 72.7163 7.07854 73.2126 7.07854C73.8025 7.07854 74.3268 7.20495 74.7856 7.45776C75.2538 7.71057 75.619 8.07107 75.8812 8.53924C76.1527 8.10852 76.5226 7.75739 76.9907 7.48585C77.4589 7.21431 77.9692 7.07854 78.5216 7.07854ZM85.7913 8.27238C86.0254 7.90721 86.3484 7.61226 86.7604 7.38754C87.1724 7.16281 87.6546 7.05045 88.2071 7.05045C88.8532 7.05045 89.4384 7.21431 89.9627 7.54203C90.4871 7.86975 90.8991 8.33792 91.1987 8.94655C91.5077 9.55517 91.6622 10.2621 91.6622 11.0674C91.6622 11.8726 91.5077 12.5842 91.1987 13.2022C90.8991 13.8108 90.4871 14.2837 89.9627 14.6208C89.4384 14.9485 88.8532 15.1124 88.2071 15.1124C87.664 15.1124 87.1818 15 86.7604 14.7753C86.3484 14.5506 86.0254 14.2603 85.7913 13.9045V18.736H83.3896V7.16281H85.7913V8.27238ZM89.2183 11.0674C89.2183 10.4681 89.0498 9.99993 88.7127 9.66285C88.385 9.3164 87.9777 9.14318 87.4908 9.14318C87.0132 9.14318 86.6059 9.3164 86.2689 9.66285C85.9411 10.0093 85.7773 10.4821 85.7773 11.0814C85.7773 11.6807 85.9411 12.1535 86.2689 12.5C86.6059 12.8464 87.0132 13.0196 87.4908 13.0196C87.9683 13.0196 88.3756 12.8464 88.7127 12.5C89.0498 12.1442 89.2183 11.6666 89.2183 11.0674ZM96.4897 15.1124C95.7219 15.1124 95.029 14.9485 94.411 14.6208C93.8023 14.2931 93.3201 13.8249 92.9643 13.2163C92.6179 12.6076 92.4447 11.896 92.4447 11.0814C92.4447 10.2762 92.6226 9.56921 92.9784 8.96059C93.3342 8.34261 93.8211 7.86975 94.4391 7.54203C95.057 7.21431 95.7499 7.05045 96.5177 7.05045C97.2855 7.05045 97.9784 7.21431 98.5964 7.54203C99.2144 7.86975 99.7013 8.34261 100.057 8.96059C100.413 9.56921 100.591 10.2762 100.591 11.0814C100.591 11.8867 100.408 12.5983 100.043 13.2163C99.6873 13.8249 99.1957 14.2931 98.5683 14.6208C97.9503 14.9485 97.2575 15.1124 96.4897 15.1124ZM96.4897 13.0337C96.9485 13.0337 97.337 12.8651 97.6554 12.5281C97.9831 12.191 98.147 11.7088 98.147 11.0814C98.147 10.4541 97.9878 9.97184 97.6694 9.63476C97.3604 9.29767 96.9765 9.12913 96.5177 9.12913C96.0496 9.12913 95.661 9.29767 95.352 9.63476C95.043 9.96248 94.8885 10.4447 94.8885 11.0814C94.8885 11.7088 95.0383 12.191 95.3379 12.5281C95.6469 12.8651 96.0308 13.0337 96.4897 13.0337ZM59.4564 26.1403V36H57.0546V30.087L54.8496 36H52.9113L50.6922 30.073V36H48.2905V26.1403H51.1276L53.8945 32.9663L56.6333 26.1403H59.4564ZM62.3914 27.3482C61.97 27.3482 61.6236 27.2265 61.352 26.983C61.0898 26.7302 60.9587 26.4212 60.9587 26.056C60.9587 25.6815 61.0898 25.3725 61.352 25.1291C61.6236 24.8763 61.97 24.7498 62.3914 24.7498C62.8033 24.7498 63.1404 24.8763 63.4026 25.1291C63.6741 25.3725 63.8099 25.6815 63.8099 26.056C63.8099 26.4212 63.6741 26.7302 63.4026 26.983C63.1404 27.2265 62.8033 27.3482 62.3914 27.3482ZM63.5852 28.1628V36H61.1835V28.1628H63.5852ZM70.101 28.0785C71.0187 28.0785 71.749 28.3782 72.2921 28.9774C72.8445 29.5673 73.1207 30.3819 73.1207 31.4213V36H70.7331V31.7443C70.7331 31.22 70.5973 30.8127 70.3258 30.5224C70.0542 30.2321 69.689 30.087 69.2302 30.087C68.7714 30.087 68.4063 30.2321 68.1347 30.5224C67.8632 30.8127 67.7274 31.22 67.7274 31.7443V36H65.3257V28.1628H67.7274V29.2022C67.9709 28.8557 68.2986 28.5842 68.7106 28.3875C69.1226 28.1815 69.586 28.0785 70.101 28.0785ZM74.3122 32.0674C74.3122 31.2621 74.462 30.5552 74.7616 29.9465C75.0706 29.3379 75.4873 28.8698 76.0116 28.542C76.536 28.2143 77.1212 28.0505 77.7673 28.0505C78.3197 28.0505 78.8019 28.1628 79.2139 28.3875C79.6353 28.6123 79.9583 28.9072 80.183 29.2724V28.1628H82.5847V36H80.183V34.8904C79.9489 35.2556 79.6212 35.5506 79.1999 35.7753C78.7879 36 78.3057 36.1124 77.7532 36.1124C77.1165 36.1124 76.536 35.9485 76.0116 35.6208C75.4873 35.2837 75.0706 34.8108 74.7616 34.2022C74.462 33.5842 74.3122 32.8726 74.3122 32.0674ZM80.183 32.0814C80.183 31.4821 80.0145 31.0093 79.6774 30.6628C79.3497 30.3164 78.9471 30.1432 78.4695 30.1432C77.992 30.1432 77.5847 30.3164 77.2476 30.6628C76.9199 30.9999 76.756 31.4681 76.756 32.0674C76.756 32.6666 76.9199 33.1442 77.2476 33.5C77.5847 33.8464 77.992 34.0196 78.4695 34.0196C78.9471 34.0196 79.3497 33.8464 79.6774 33.5C80.0145 33.1535 80.183 32.6807 80.183 32.0814ZM83.8447 32.0674C83.8447 31.2621 83.9946 30.5552 84.2942 29.9465C84.6032 29.3379 85.0199 28.8698 85.5442 28.542C86.0686 28.2143 86.6538 28.0505 87.2999 28.0505C87.8148 28.0505 88.283 28.1581 88.7044 28.3735C89.1351 28.5888 89.4722 28.8791 89.7156 29.2443V25.6066H92.1173V36H89.7156V34.8764C89.4909 35.2509 89.1679 35.5506 88.7465 35.7753C88.3345 36 87.8523 36.1124 87.2999 36.1124C86.6538 36.1124 86.0686 35.9485 85.5442 35.6208C85.0199 35.2837 84.6032 34.8108 84.2942 34.2022C83.9946 33.5842 83.8447 32.8726 83.8447 32.0674ZM89.7156 32.0814C89.7156 31.4821 89.5471 31.0093 89.21 30.6628C88.8823 30.3164 88.4796 30.1432 88.0021 30.1432C87.5246 30.1432 87.1173 30.3164 86.7802 30.6628C86.4525 30.9999 86.2886 31.4681 86.2886 32.0674C86.2886 32.6666 86.4525 33.1442 86.7802 33.5C87.1173 33.8464 87.5246 34.0196 88.0021 34.0196C88.4796 34.0196 88.8823 33.8464 89.21 33.5C89.5471 33.1535 89.7156 32.6807 89.7156 32.0814ZM97.4223 36.1124C96.6545 36.1124 95.9616 35.9485 95.3437 35.6208C94.735 35.2931 94.2528 34.8249 93.897 34.2163C93.5506 33.6076 93.3773 32.896 93.3773 32.0814C93.3773 31.2762 93.5552 30.5692 93.9111 29.9606C94.2669 29.3426 94.7538 28.8698 95.3717 28.542C95.9897 28.2143 96.6826 28.0505 97.4504 28.0505C98.2182 28.0505 98.9111 28.2143 99.5291 28.542C100.147 28.8698 100.634 29.3426 100.99 29.9606C101.346 30.5692 101.524 31.2762 101.524 32.0814C101.524 32.8867 101.341 33.5983 100.976 34.2163C100.62 34.8249 100.128 35.2931 99.501 35.6208C98.883 35.9485 98.1901 36.1124 97.4223 36.1124ZM97.4223 34.0337C97.8811 34.0337 98.2697 33.8651 98.5881 33.5281C98.9158 33.191 99.0797 32.7088 99.0797 32.0814C99.0797 31.4541 98.9205 30.9718 98.6021 30.6348C98.2931 30.2977 97.9092 30.1291 97.4504 30.1291C96.9823 30.1291 96.5937 30.2977 96.2847 30.6348C95.9757 30.9625 95.8212 31.4447 95.8212 32.0814C95.8212 32.7088 95.971 33.191 96.2706 33.5281C96.5796 33.8651 96.9635 34.0337 97.4223 34.0337Z" fill="white"/>
</svg>
