<svg width="16" height="16" viewBox="0 0 16 16" fill="none" xmlns="http://www.w3.org/2000/svg">
<path d="M15.1235 9.0601V7.69735H13.0317C12.909 6.72979 12.5274 5.80993 11.9278 5.03998L13.42 3.56139L12.4457 2.58702L10.9671 4.07923C10.1971 3.47962 9.27728 3.09805 8.30972 2.9754V0.883575H6.94697V2.9754C5.97941 3.09805 5.05955 3.47962 4.28959 4.07923L2.81101 2.58702L1.83664 3.56139L3.32885 5.03998C2.72924 5.80993 2.34767 6.72979 2.22502 7.69735H0.133194V9.0601H2.22502C2.34767 10.0277 2.72924 10.9475 3.32885 11.7175L1.83664 13.1961L2.81101 14.1704L4.28959 12.6782C5.05955 13.2778 5.97941 13.6594 6.94697 13.782V15.8739H8.30972V13.782C9.27728 13.6594 10.1971 13.2778 10.9671 12.6782L12.4457 14.1704L13.42 13.1961L11.9278 11.7175C12.5274 10.9475 12.909 10.0277 13.0317 9.0601H15.1235ZM7.62834 5.65322C6.90549 5.65322 6.21225 5.94037 5.70112 6.4515C5.18998 6.96263 4.90283 7.65587 4.90283 8.37872H3.54008C3.54008 7.29445 3.97081 6.25458 4.7375 5.48789C5.5042 4.72119 6.54407 4.29046 7.62834 4.29046V5.65322Z" fill="#DB4935"/>
</svg>
