<svg width="25" height="25" viewBox="0 0 25 25" fill="none" xmlns="http://www.w3.org/2000/svg">
<g clip-path="url(#clip0_115_207)">
<path d="M22.8708 13.3921V11.3921H19.8008C19.6208 9.97209 19.0608 8.62209 18.1808 7.49209L20.3708 5.32209L18.9408 3.89209L16.7708 6.08209C15.6408 5.20209 14.2908 4.64209 12.8708 4.46209V1.39209H10.8708V4.46209C9.45085 4.64209 8.10085 5.20209 6.97085 6.08209L4.80085 3.89209L3.37085 5.32209L5.56085 7.49209C4.68085 8.62209 4.12085 9.97209 3.94085 11.3921H0.87085V13.3921H3.94085C4.12085 14.8121 4.68085 16.1621 5.56085 17.2921L3.37085 19.4621L4.80085 20.8921L6.97085 18.7021C8.10085 19.5821 9.45085 20.1421 10.8708 20.3221V23.3921H12.8708V20.3221C14.2908 20.1421 15.6408 19.5821 16.7708 18.7021L18.9408 20.8921L20.3708 19.4621L18.1808 17.2921C19.0608 16.1621 19.6208 14.8121 19.8008 13.3921H22.8708ZM11.8708 8.39209C10.81 8.39209 9.79257 8.81352 9.04242 9.56366C8.29228 10.3138 7.87085 11.3312 7.87085 12.3921H5.87085C5.87085 10.8008 6.50299 9.27467 7.62821 8.14945C8.75343 7.02423 10.2796 6.39209 11.8708 6.39209V8.39209Z" fill="#B02D2D"/>
</g>
<defs>
<clipPath id="clip0_115_207">
<rect width="24" height="24" fill="white" transform="translate(0.87085 0.39209)"/>
</clipPath>
</defs>
</svg>
